<svg width="24" height="24" viewBox="0 0 24 24" fill="none" xmlns="http://www.w3.org/2000/svg">
<path d="M21.9264 11.8998C21.8697 11.2117 21.266 10.6999 20.578 10.7566C19.89 10.8133 19.3782 11.417 19.4349 12.105L21.9264 11.8998ZM20.7119 12.7692H19.4619H20.7119ZM2.25 12.7692L1 12.7692V12.7692H2.25ZM9.04342 5.16705C9.7007 4.95595 10.0624 4.25198 9.8513 3.59469C9.6402 2.9374 8.93623 2.5757 8.27894 2.7868L9.04342 5.16705ZM22.25 12V13.25C22.9404 13.25 23.5 12.6904 23.5 12H22.25ZM12.2498 2.00001L12.248 3.25001H12.2498V2.00001ZM8.1632 2.86972L7.6525 1.72881C7.0224 2.01085 6.74024 2.75028 7.02227 3.38039L8.1632 2.86972ZM12.2498 12L11.1089 12.5107C11.3102 12.9605 11.757 13.25 12.2498 13.25V12ZM19.4349 12.105C19.4528 12.3232 19.4619 12.5445 19.4619 12.7692H21.9619C21.9619 12.4773 21.9501 12.1874 21.9264 11.8998L19.4349 12.105ZM19.4619 12.7692C19.4619 17.175 15.8869 20.75 11.4809 20.75V23.25C17.2675 23.25 21.9619 18.5558 21.9619 12.7692H19.4619ZM11.4809 20.75C7.07503 20.75 3.5 17.175 3.5 12.7692H1C1 18.5558 5.69436 23.25 11.4809 23.25V20.75ZM3.5 12.7693C3.50007 11.0784 4.03689 9.43127 5.0331 8.06505L3.0131 6.5921C1.70498 8.38606 1.0001 10.549 1 12.7692L3.5 12.7693ZM5.0331 8.06505C6.02932 6.69884 7.43352 5.68411 9.04342 5.16705L8.27894 2.7868C6.16504 3.46573 4.32122 4.79815 3.0131 6.5921L5.0331 8.06505ZM23.5 12C23.5 5.78655 18.4633 0.750011 12.2498 0.750011V3.25001C17.0827 3.25001 21 7.16731 21 12H23.5ZM12.2517 0.750012C10.6667 0.747651 9.09918 1.08125 7.6525 1.72881L8.67389 4.01064C9.79812 3.50741 11.0162 3.24817 12.248 3.25001L12.2517 0.750012ZM7.02227 3.38039L11.1089 12.5107L13.3907 11.4893L9.30413 2.35905L7.02227 3.38039ZM12.2498 13.25H22.25V10.75H12.2498V13.25Z" fill="#8C9099"/>
</svg>
