<svg width="32" height="24" viewBox="0 0 32 24" fill="none" xmlns="http://www.w3.org/2000/svg">
<path d="M5.33301 20C5.33301 18.5855 5.89491 17.2289 6.8951 16.2287C7.8953 15.2285 9.25185 14.6666 10.6663 14.6666H21.333C22.7475 14.6666 24.104 15.2285 25.1042 16.2287C26.1044 17.2289 26.6663 18.5855 26.6663 20C26.6663 20.7072 26.3854 21.3855 25.8853 21.8856C25.3852 22.3857 24.7069 22.6666 23.9997 22.6666H7.99967C7.29243 22.6666 6.61415 22.3857 6.11406 21.8856C5.61396 21.3855 5.33301 20.7072 5.33301 20Z" stroke="#8C9099" stroke-width="2.66667" stroke-linejoin="round"/>
<path d="M16 9.33331C18.2091 9.33331 20 7.54245 20 5.33331C20 3.12417 18.2091 1.33331 16 1.33331C13.7909 1.33331 12 3.12417 12 5.33331C12 7.54245 13.7909 9.33331 16 9.33331Z" stroke="#8C9099" stroke-width="2.66667"/>
</svg>
